<?xml version="1.0" standalone="no"?>
<!DOCTYPE svg PUBLIC "-//W3C//DTD SVG 20010904//EN"
 "http://www.w3.org/TR/2001/REC-SVG-20010904/DTD/svg10.dtd">
<svg version="1.0" xmlns="http://www.w3.org/2000/svg"
 width="85.000000pt" height="172.000000pt" viewBox="0 0 85.000000 172.000000"
 preserveAspectRatio="xMidYMid meet">
<metadata>
Created by potrace 1.16, written by Peter Selinger 2001-2019
</metadata>
<g transform="translate(0.000000,172.000000) scale(0.100000,-0.100000)"
fill="#00688B" stroke="none">
<path d="M367 1569 c-10 -6 -30 -8 -44 -4 -17 4 -31 0 -43 -10 -14 -13 -23
-14 -38 -6 -15 8 -21 7 -25 -3 -3 -8 -16 -16 -29 -18 l-23 -3 0 -217 c0 -216
5 -251 35 -233 8 5 11 66 9 210 -1 111 1 207 4 212 4 6 21 13 38 15 29 4 30 4
14 -8 -10 -7 -23 -15 -29 -17 -7 -2 -13 -74 -16 -218 -5 -213 -5 -214 -27
-217 -13 -2 -23 -10 -23 -18 0 -12 7 -14 33 -9 17 4 34 9 37 12 3 3 6 98 8
213 l3 208 72 7 c40 3 115 5 167 3 l95 -4 -115 -2 c-93 -2 -181 -13 -192 -25
-1 -1 -4 -99 -7 -217 l-6 -215 -50 2 c-49 2 -50 2 -27 -16 22 -16 24 -26 27
-127 9 -242 25 -468 35 -478 5 -5 10 -38 10 -72 0 -79 10 -106 60 -155 22 -22
40 -46 40 -54 0 -8 3 -15 8 -15 8 1 15 11 91 123 31 46 60 77 70 77 22 0 41
19 41 41 0 29 -22 34 -41 11 -18 -23 -39 -29 -39 -13 0 5 -3 16 -6 25 -5 14 3
16 53 16 33 0 67 6 76 13 35 25 54 311 22 337 -9 8 -15 36 -17 83 l-3 72 -72
-4 c-67 -3 -73 -1 -73 16 0 20 38 63 56 63 6 0 20 -11 32 -25 12 -14 28 -25
35 -25 18 0 37 21 37 41 0 10 11 30 23 46 23 27 39 86 30 111 -3 6 -17 12 -32
12 -23 0 -31 -7 -44 -40 -9 -23 -22 -40 -31 -40 -17 0 -42 42 -47 80 -4 25 -3
25 77 28 75 3 82 5 88 25 14 51 9 57 -44 57 -27 0 -50 5 -50 10 0 6 22 10 49
10 35 0 51 4 55 16 11 28 7 31 -44 38 -27 4 -50 12 -50 18 0 7 16 8 49 4 l49
-6 7 52 c10 82 3 174 -14 170 -7 -1 -19 5 -26 14 -9 12 -19 15 -39 10 -17 -4
-34 -2 -42 5 -8 6 -23 9 -35 6 -12 -3 -31 -1 -44 5 -16 7 -29 7 -45 -2 -16 -9
-25 -9 -33 -1 -14 14 -46 14 -70 0z m191 -151 c14 -14 16 -108 2 -108 -5 0
-10 14 -10 31 0 58 -14 69 -84 69 -47 0 -70 -5 -86 -18 -22 -18 -22 -22 -15
-116 7 -98 7 -98 41 -118 19 -11 34 -24 34 -28 0 -9 -89 -70 -102 -70 -4 0 -8
17 -8 38 0 22 -3 92 -6 158 -8 151 -5 155 97 164 116 11 124 11 137 -2z m-13
-642 c14 -10 20 -31 24 -87 6 -72 7 -74 36 -80 30 -7 30 -7 -6 -8 l-36 -1 -7
61 c-4 33 -9 66 -12 72 -3 8 -43 12 -134 12 -105 0 -133 -3 -140 -15 -12 -18
-13 -250 -1 -268 5 -9 52 -16 142 -23 167 -12 229 -27 119 -28 -132 -1 -263
16 -277 35 -9 13 -13 62 -13 171 0 139 2 153 18 154 9 1 69 5 132 9 63 3 120
7 126 8 5 1 19 -4 29 -12z"/>
</g>
</svg>
